<svg width="869" height="869" xmlns="http://www.w3.org/2000/svg" xmlns:xlink="http://www.w3.org/1999/xlink" xml:space="preserve" overflow="hidden"><g transform="translate(-2039 -893)"><path d="M2354.5 1436.5C2354.5 1376.3 2408 1327.5 2474 1327.5 2540 1327.5 2593.5 1376.3 2593.5 1436.5 2593.5 1496.7 2540 1545.5 2474 1545.5 2408 1545.5 2354.5 1496.7 2354.5 1436.5Z" stroke="#0A0A0A" stroke-width="55" stroke-miterlimit="8" fill="none" fill-rule="evenodd"/><path d="M0 84.8484C31.8317 49.6673 63.6636 14.4863 103.638 16.5558 143.613 18.6253 198.064 100.025 239.849 97.2652 281.633 94.5059 317.989 47.253 354.344 0" stroke="#0A0A0A" stroke-width="55" stroke-linecap="round" stroke-linejoin="round" stroke-miterlimit="10" fill="none" fill-rule="evenodd" transform="matrix(0.672011 -0.740541 -0.740541 -0.672011 2563.46 1372.34)"/><path d="M2445.97 1315.32C2398.52 1315.39 2351.08 1315.46 2325.75 1284.47 2300.42 1253.47 2324.1 1158.45 2293.98 1129.36 2263.86 1100.27 2204.43 1105.1 2145.01 1109.94" stroke="#0A0A0A" stroke-width="55" stroke-linecap="round" stroke-linejoin="round" stroke-miterlimit="10" fill="none" fill-rule="evenodd"/><path d="M2066.5 1327.5C2066.5 1102.72 2248.72 920.5 2473.5 920.5 2698.28 920.5 2880.5 1102.72 2880.5 1327.5 2880.5 1552.28 2698.28 1734.5 2473.5 1734.5 2248.72 1734.5 2066.5 1552.28 2066.5 1327.5Z" stroke="#0A0A0A" stroke-width="55" stroke-miterlimit="8" fill="none" fill-rule="evenodd"/><path d="M2156.5 1569.5 2473.5 950.5 2790.5 1569.5Z" stroke="#0A0A0A" stroke-width="55" stroke-linecap="round" stroke-linejoin="round" stroke-miterlimit="10" fill="none" fill-rule="evenodd"/></g></svg>