<svg width="869" height="869" xmlns="http://www.w3.org/2000/svg" xmlns:xlink="http://www.w3.org/1999/xlink" xml:space="preserve" overflow="hidden"><g transform="translate(-963 -893)"><path d="M1278.5 1436.5C1278.5 1376.3 1332 1327.5 1398 1327.5 1464 1327.5 1517.5 1376.3 1517.5 1436.5 1517.5 1496.7 1464 1545.5 1398 1545.5 1332 1545.5 1278.5 1496.7 1278.5 1436.5Z" stroke="#D4D4D4" stroke-width="55" stroke-miterlimit="8" fill="none" fill-rule="evenodd"/><path d="M0 84.8484C31.8317 49.6673 63.6636 14.4863 103.638 16.5558 143.613 18.6253 198.064 100.025 239.849 97.2652 281.633 94.5059 317.989 47.253 354.344 0" stroke="#D4D4D4" stroke-width="55" stroke-linecap="round" stroke-linejoin="round" stroke-miterlimit="10" fill="none" fill-rule="evenodd" transform="matrix(0.672011 -0.740541 -0.740541 -0.672011 1487.52 1372.34)"/><path d="M1370.03 1315.32C1322.59 1315.39 1275.14 1315.46 1249.81 1284.47 1224.48 1253.47 1248.17 1158.45 1218.04 1129.36 1187.92 1100.27 1128.5 1105.1 1069.07 1109.94" stroke="#D4D4D4" stroke-width="55" stroke-linecap="round" stroke-linejoin="round" stroke-miterlimit="10" fill="none" fill-rule="evenodd"/><path d="M990.5 1327.5C990.5 1102.72 1172.72 920.5 1397.5 920.5 1622.28 920.5 1804.5 1102.72 1804.5 1327.5 1804.5 1552.28 1622.28 1734.5 1397.5 1734.5 1172.72 1734.5 990.5 1552.28 990.5 1327.5Z" stroke="#D4D4D4" stroke-width="55" stroke-miterlimit="8" fill="none" fill-rule="evenodd"/><path d="M1080.5 1569.5 1397.5 950.5 1714.5 1569.5Z" stroke="#D4D4D4" stroke-width="55" stroke-linecap="round" stroke-linejoin="round" stroke-miterlimit="10" fill="none" fill-rule="evenodd"/></g></svg>